<svg xmlns="http://www.w3.org/2000/svg" viewBox="0 0 960 600" role="img" aria-label="Financial research dashboard thumbnail">
  <rect width="960" height="600" fill="#f6f3ea"/>
  <rect x="48" y="44" width="864" height="512" rx="18" fill="#ffffff" stroke="#cbd4dc" stroke-width="3"/>
  <rect x="48" y="44" width="210" height="512" rx="18" fill="#edf6f2"/>
  <rect x="82" y="90" width="130" height="22" rx="11" fill="#1f6fb2"/>
  <rect x="82" y="142" width="132" height="34" rx="8" fill="#ffffff" stroke="#cbd4dc"/>
  <rect x="82" y="194" width="132" height="34" rx="8" fill="#ffffff" stroke="#cbd4dc"/>
  <rect x="82" y="246" width="132" height="34" rx="8" fill="#ffffff" stroke="#cbd4dc"/>
  <rect x="300" y="90" width="260" height="32" rx="8" fill="#111827"/>
  <rect x="300" y="146" width="126" height="88" rx="10" fill="#f8fbff" stroke="#cbd4dc"/>
  <rect x="450" y="146" width="126" height="88" rx="10" fill="#f8fbff" stroke="#cbd4dc"/>
  <rect x="600" y="146" width="126" height="88" rx="10" fill="#f8fbff" stroke="#cbd4dc"/>
  <rect x="300" y="276" width="560" height="214" rx="12" fill="#ffffff" stroke="#cbd4dc"/>
  <polyline points="336,430 408,396 480,408 552,344 624,366 696,302 768,320 824,282" fill="none" stroke="#1f6fb2" stroke-width="12" stroke-linecap="round" stroke-linejoin="round"/>
  <polyline points="336,454 408,430 480,440 552,392 624,402 696,354 768,366 824,340" fill="none" stroke="#198754" stroke-width="8" stroke-linecap="round" stroke-linejoin="round" stroke-dasharray="18 16"/>
  <rect x="336" y="516" width="88" height="14" rx="7" fill="#d59f16"/>
  <rect x="444" y="516" width="88" height="14" rx="7" fill="#1f6fb2"/>
  <rect x="552" y="516" width="88" height="14" rx="7" fill="#198754"/>
</svg>

